<svg width="162" height="15" viewBox="0 0 162 15" fill="none" xmlns="http://www.w3.org/2000/svg">
<path d="M71.757 5.71409V9.25516H58.1264V11.2308H71.743V14.9432H53.3655V0.0415533H71.748V3.75554H58.1232V5.71491H71.757V5.71409Z" fill="#FFFFFF"/>
<path d="M148.36 11.2329H148.919C153.118 11.2329 157.318 11.2377 161.516 11.2247C161.889 11.2239 162.009 11.3152 161.999 11.697C161.973 12.768 161.99 13.8399 161.99 14.9419H143.593V0.0500917H161.99C161.99 0.382091 161.99 0.716538 161.99 1.05099C161.99 1.81206 161.974 2.57394 161.998 3.33501C162.009 3.67598 161.901 3.76897 161.56 3.76816C157.347 3.75755 153.134 3.76082 148.921 3.76082C148.744 3.76082 148.567 3.76082 148.356 3.76082V5.71774H161.959V9.24657H148.359V11.2337L148.36 11.2329Z" fill="#FFFFFF"/>
<path d="M120.919 0.0196968C121.099 0.0196968 121.248 0.0196968 121.396 0.0196968C126.774 0.0196968 132.153 0.0229595 137.531 0.0148023C138.108 0.0139866 138.569 0.216286 138.904 0.664933C139.017 0.816662 139.101 1.0312 139.102 1.21718C139.115 3.73205 139.113 6.24611 139.11 8.761C139.11 9.3418 138.492 9.84999 137.781 9.85978C137.249 9.86712 136.716 9.86141 136.029 9.86141C137.088 11.5981 138.089 13.2393 139.116 14.9246C139.008 14.9425 138.913 14.9719 138.817 14.9719C137.006 14.9744 135.195 14.9793 133.385 14.9638C133.248 14.9629 133.061 14.8463 132.986 14.7288C132.17 13.4539 131.292 12.032 130.6 10.8688C130.132 9.94217 129.48 9.84918 128.601 9.84918C127.833 9.84918 127.01 9.86223 126.214 9.86223C126.068 9.86223 125.921 9.86223 125.737 9.86223V14.9442H120.919V0.0196968ZM125.657 6.07644C125.726 6.09847 125.764 6.12049 125.803 6.12049C128.587 6.12375 131.37 6.12294 134.154 6.12865C134.402 6.12865 134.45 6.00629 134.447 5.79746C134.44 5.29498 134.425 4.79168 134.452 4.29001C134.469 3.95393 134.364 3.85115 134.017 3.85278C131.357 3.86665 128.697 3.86012 126.037 3.86094C125.917 3.86094 125.798 3.87399 125.658 3.88296V6.07563L125.657 6.07644Z" fill="#FFFFFF"/>
<path d="M18.3718 14.9737H15.0946C14.5594 14.9737 14.0168 14.9174 13.4915 14.9884C12.8895 15.0699 12.589 14.7086 12.2654 14.3464C11.8529 13.8839 11.4544 13.4091 11.0476 12.9409C10.4383 12.2402 9.82813 11.5395 9.21799 10.8404C8.97838 10.5655 8.73712 10.2914 8.49422 10.019C7.44191 8.83944 6.39207 7.65908 5.334 6.48525C5.21461 6.35311 5.04993 6.26093 4.82926 6.09044V14.9517H0V0.0198314H0.416642C2.03545 0.0198314 3.65508 0.0328829 5.27389 0.0092269C5.62466 0.00433255 5.83298 0.150347 6.03636 0.384459C6.49582 0.914683 6.96681 1.43511 7.42544 1.96533C8.22744 2.89118 9.02284 3.82273 9.82484 4.74858C10.0908 5.05529 10.3708 5.34977 10.64 5.65403C11.3267 6.43142 12.0069 7.21614 12.6993 7.98781C12.855 8.16158 13.0534 8.29699 13.3284 8.53192V0.044303H18.3701V14.9737H18.3718Z" fill="#FFFFFF"/>
<path d="M80.7008 3.85517V11.2269H94.3108V14.9735C94.1634 14.9735 94.0185 14.9735 93.8736 14.9735C88.3313 14.9735 82.7889 14.9735 77.2466 14.9735C76.4051 14.9735 75.8205 14.3943 75.8205 13.5607C75.8205 9.59216 75.8197 5.62366 75.8205 1.65517C75.8205 0.799469 76.3771 -0.00809595 77.4409 6.12755e-05C82.8729 0.0424788 88.3057 0.0196388 93.7385 0.0196388C93.9164 0.0196388 94.0943 0.0196388 94.305 0.0196388V3.85517H80.7008Z" fill="#FFFFFF"/>
<path d="M30.8043 0.0375688H49.4536V3.74666H42.4621V14.9523H37.7045V3.76869H30.8043V0.0375688Z" fill="#FFFFFF"/>
<path d="M22.1635 14.9481V0.0529378H26.9787V14.9472H22.1635V14.9481Z" fill="#FFFFFF"/>
<path fill-rule="evenodd" clip-rule="evenodd" d="M105.444 14.9707C106.174 14.9721 106.904 14.9734 107.634 14.9734C108.407 14.9734 109.181 14.9735 109.954 14.9738C111.759 14.9743 113.564 14.9749 115.369 14.9726C116.177 14.9718 116.81 14.4138 116.812 13.6519C116.822 9.5888 116.82 5.52649 116.813 1.46337C116.811 0.760217 116.12 0.0211715 115.495 0.0211715L114.681 0.0207808C109.795 0.0184217 104.909 0.0160622 100.023 0.0268816C99.5939 0.0276973 99.1953 0.146792 98.8536 0.48287C98.5037 0.826293 98.4246 1.25128 98.4222 1.66159C98.4008 5.5477 98.3884 9.43381 98.4238 13.3199C98.4329 14.3363 98.8775 14.9905 100.145 14.9799C101.911 14.9643 103.677 14.9675 105.444 14.9707ZM111.951 10.7923C111.951 10.972 111.803 11.1175 111.621 11.1175H103.457C103.275 11.1175 103.128 10.9706 103.128 10.79L103.153 3.87022C103.153 3.69047 103.301 3.5451 103.483 3.5451H111.457C111.853 3.54347 111.978 3.65522 111.975 4.05084L111.951 10.7923Z" fill="#FFFFFF"/>
</svg>
