<svg width="31" height="31" viewBox="0 0 31 31" fill="none" xmlns="http://www.w3.org/2000/svg">
<g clip-path="url(#clip0_551_668)">
<path d="M28.3175 30.9999C28.6644 31.0075 28.9608 30.6818 28.9206 30.3372L28.2795 23.5489C28.1283 21.9156 27.3559 20.3698 26.1382 19.2712C26.1409 19.0008 26.1855 17.897 26.1614 16.3974C26.1371 14.9589 26.0565 14.0865 25.9555 13.536C26.691 13.3285 27.2318 12.6518 27.2318 11.8509V10.1226C27.2318 9.15706 26.4463 8.37155 25.4807 8.37155H21.75V7.45108C21.8985 7.34066 21.9951 7.16439 21.9951 6.96516V4.14125C21.9951 3.10073 21.6086 2.10521 20.9066 1.33799C20.2094 0.575982 19.2611 0.102846 18.2364 0.00580848C17.9034 -0.0259924 17.6078 0.218601 17.5762 0.551693C17.5446 0.884723 17.789 1.18032 18.122 1.21182C19.6394 1.35562 20.7836 2.61499 20.7836 4.14125V6.24822C20.1391 6.00423 19.6514 5.44508 19.6406 4.79186V3.7783C19.6406 3.44581 19.3726 3.17547 19.0401 3.17257C17.7315 3.16512 16.533 4.15991 16.1936 5.40892C16.0397 5.96856 15.5261 6.35937 14.9446 6.35937C14.5462 6.36028 14.1712 6.17596 13.9277 5.86534C13.7298 5.6113 13.3528 5.55545 13.0883 5.75534C12.7662 5.99684 12.3835 6.12768 11.9807 6.13519C10.9162 6.18292 10.1734 5.1547 10.2155 4.14119C10.2155 2.62414 11.3984 1.33636 12.9085 1.20945C13.2418 1.18141 13.4893 0.888479 13.4613 0.555085C13.4333 0.221691 13.1403 -0.0262952 12.807 0.00223467C11.7725 0.0892175 10.8136 0.558174 10.1068 1.32273C9.39566 2.092 9.00399 3.09297 9.00399 4.14119C8.99963 4.6176 9.09086 5.08576 9.26476 5.50632C9.25549 5.64364 9.24919 5.78266 9.24919 5.92325V8.37143H5.60694C4.6414 8.37143 3.85583 9.15694 3.85583 10.1225V11.8507C3.85583 12.6519 4.39681 13.3286 5.13247 13.536C5.03137 14.0866 4.95069 14.9589 4.9264 16.3973C4.9032 17.7688 4.94457 19.0546 4.94809 19.1609L4.94863 19.2028C3.69865 20.3103 2.87843 21.8727 2.71979 23.5491L2.07886 30.3372C2.03864 30.6819 2.33509 31.0075 2.68193 30.9999H28.3175ZM6.35017 13.6018H11.5342C11.6881 13.7284 11.8482 13.8477 12.0133 13.9588L11.943 14.4603L11.6527 16.5301L9.97431 17.0437C9.59967 16.7528 9.09588 16.655 8.62626 16.8076L6.95154 17.3548C6.59404 17.4714 6.30619 17.7154 6.1315 18.0271C6.09958 15.9008 6.20255 14.2732 6.35017 13.6018ZM11.5786 7.3243C12.1894 7.39941 12.8166 7.28535 13.3617 7.00811C13.8041 7.37028 14.3585 7.57089 14.9446 7.57089C16.07 7.57089 17.0641 6.81391 17.3625 5.72893C17.511 5.18844 17.9209 4.72899 18.4291 4.50978V4.79186C18.4349 6.02834 19.3333 7.08813 20.5385 7.44539V8.77091C20.5541 10.8698 19.1724 12.807 17.2336 13.5022C16.1271 13.9108 14.8752 13.911 13.7682 13.5032C11.8282 12.8088 10.4453 10.8707 10.4609 8.77091V6.93948C10.796 7.14355 11.1755 7.27427 11.5786 7.3243ZM24.9549 18.1022C24.7862 17.7549 24.4819 17.4807 24.0965 17.3548L22.4207 16.8076C21.9631 16.6561 21.4488 16.7484 21.0715 17.0443L19.4127 16.5313L19.2136 15.1109L19.0463 13.9178C19.1898 13.8186 19.3297 13.7131 19.4651 13.6018H24.7378C24.8871 14.2814 24.9906 15.9394 24.9549 18.1022ZM7.1573 18.741C7.1573 18.6338 7.22551 18.5396 7.32751 18.5064L9.00193 17.9593C9.17959 17.9069 9.32358 18.0346 9.32509 18.1937V23.6922H7.1573V18.741ZM13.5129 14.6972C14.9341 15.1781 16.528 15.1198 17.9101 14.5387L18.2348 16.8552C17.6341 17.7171 16.631 18.2251 15.5671 18.2221C14.5046 18.2275 13.4574 17.7086 12.8317 16.8473L13.1519 14.5643C13.2707 14.6125 13.3912 14.6565 13.5129 14.6972ZM11.9609 17.7028C12.8272 18.8016 14.1772 19.4385 15.568 19.4338C16.9577 19.4388 18.2835 18.7947 19.1124 17.7066L19.6917 17.8857L20.3251 18.0816C19.2798 19.6877 17.5139 20.6413 15.568 20.6413C13.616 20.6413 11.82 19.685 10.7392 18.0766L11.9609 17.7028ZM13.9096 23.6922H10.5366V19.7401C11.8434 21.0813 13.6429 21.8527 15.568 21.8527C17.4717 21.8527 19.2339 21.0985 20.5107 19.7825V23.6921H17.2975C16.9902 23.4081 16.5798 23.2341 16.1294 23.2341H15.0776C14.6272 23.2342 14.2168 23.4081 13.9096 23.6922ZM21.7221 18.1937C21.7232 18.0357 21.8669 17.9083 22.0447 17.9592L23.7204 18.5064C23.8218 18.5396 23.8899 18.6338 23.8899 18.741L23.8899 23.6922H21.7221V18.1937ZM7.15724 26.2445V24.9036L13.3557 24.9037C13.3551 24.9212 13.3549 24.9389 13.3549 24.9565C13.3549 24.9566 13.3549 24.9567 13.3549 24.9569V24.9571V26.0789C13.3548 26.1342 13.3582 26.1892 13.3627 26.2442L7.15724 26.2445ZM14.7036 26.4267C14.6157 26.3334 14.5668 26.2067 14.5664 26.0788V24.957C14.565 24.6825 14.7946 24.4437 15.0776 24.4456H16.1294C16.4123 24.4438 16.6423 24.6826 16.6404 24.9571V26.0789C16.6429 26.3537 16.411 26.5927 16.1294 26.5905H15.0776C14.9299 26.5905 14.7971 26.5272 14.7036 26.4267ZM17.844 26.2442C17.8488 26.1896 17.8522 26.1349 17.8521 26.0792V24.9569C17.8515 24.9392 17.8515 24.9214 17.851 24.9037L23.8899 24.9036V26.2445L17.844 26.2442ZM23.8899 29.7884H21.7221V27.4561H23.8899V29.7884ZM27.0734 23.663L27.6518 29.7884H25.1015L25.1013 19.9761C26.2202 20.8804 26.942 22.2299 27.0734 23.663ZM26.0203 10.1225V11.8507C26.0203 12.1483 25.7782 12.3904 25.4807 12.3904H20.593C21.1749 11.5688 21.5617 10.6207 21.6973 9.58283H25.4807C25.7783 9.58289 26.0203 9.82494 26.0203 10.1225ZM5.06735 10.1225C5.06735 9.82494 5.30946 9.58289 5.607 9.58289H9.30219C9.43782 10.6209 9.82458 11.5688 10.4064 12.3904H5.60694C5.3094 12.3904 5.06729 12.1483 5.06729 11.8508L5.06735 10.1225ZM3.34756 29.7884L3.92598 23.6631C4.06372 22.2073 4.8127 20.8557 5.94584 19.9442V29.7884H3.34756ZM7.1573 27.4561H9.32509V29.7884H7.1573V27.4561ZM10.5365 27.456L14.043 27.4557C14.3313 27.673 14.6897 27.802 15.0776 27.802H16.1294C16.5173 27.802 16.8757 27.673 17.164 27.4557L20.5107 27.456V29.7884H10.5365V27.456Z" fill="black"/>
<path d="M15.2248 11.1211H16.1671C16.5016 11.1211 16.7728 10.8499 16.7728 10.5154C16.7728 10.1809 16.5016 9.90968 16.1671 9.90968H15.6717L16.0615 8.75897C16.1689 8.44211 15.999 8.09824 15.6822 7.99084C15.3653 7.88357 15.0214 8.05336 14.9141 8.37021L14.3809 9.9442C14.289 10.2155 14.3338 10.5165 14.5007 10.7493C14.6676 10.9821 14.9383 11.1211 15.2248 11.1211Z" fill="black"/>
<path d="M14.9964 0.942309C15.4669 1.59353 16.4245 0.952 16.0031 0.269342C15.7825 -0.0850702 15.2167 -0.0848885 14.9964 0.269342C14.8605 0.46778 14.8606 0.743569 14.9964 0.942309Z" fill="black"/>
</g>
<defs>
<clipPath id="clip0_551_668">
<rect width="31" height="31" fill="white"/>
</clipPath>
</defs>
</svg>
