<svg width="24" height="31" viewBox="0 0 24 31" fill="none" xmlns="http://www.w3.org/2000/svg">
<g clip-path="url(#clip0_551_673)">
<path d="M12.8551 2.76592L11.8831 3.73792L10.9111 2.76592" stroke="black" stroke-width="0.898438" stroke-miterlimit="10" stroke-linecap="round" stroke-linejoin="round"/>
<mask id="mask0_551_673" style="mask-type:luminance" maskUnits="userSpaceOnUse" x="0" y="0" width="31" height="31">
<path d="M0 6.48499e-05H30.6667V30.6667H0V6.48499e-05Z" fill="white"/>
</mask>
<g mask="url(#mask0_551_673)">
<path d="M0.517578 30.2176L1.44896 21.032C1.60469 19.4956 2.89844 18.3265 4.44255 18.3265H9.69183" stroke="black" stroke-width="0.898438" stroke-miterlimit="10" stroke-linecap="round" stroke-linejoin="round"/>
<path d="M14.0762 18.3263H19.3254C20.8696 18.3263 22.1633 19.4955 22.319 21.0318L23.2498 30.2175" stroke="black" stroke-width="0.898438" stroke-miterlimit="10" stroke-linecap="round" stroke-linejoin="round"/>
<path d="M16.9875 7.95418V12.9392C16.9875 14.812 15.4693 16.3301 13.5966 16.3301H10.1704C8.29754 16.3301 6.7793 14.812 6.7793 12.9392V7.95418H16.9875Z" stroke="black" stroke-width="0.898438" stroke-miterlimit="10" stroke-linecap="round" stroke-linejoin="round"/>
<path d="M6.77941 12.811H6.05239C5.11196 12.811 4.34961 12.0486 4.34961 11.1081V9.6571C4.34961 8.71661 5.11196 7.9542 6.05239 7.9542H6.77941V12.811Z" stroke="black" stroke-width="0.898438" stroke-miterlimit="10" stroke-linecap="round" stroke-linejoin="round"/>
<path d="M16.9883 12.8111H17.7152C18.6557 12.8111 19.4181 12.0487 19.4181 11.1082V9.65716C19.4181 8.71667 18.6557 7.95426 17.7152 7.95426H16.9883V12.8111Z" stroke="black" stroke-width="0.898438" stroke-miterlimit="10" stroke-linecap="round" stroke-linejoin="round"/>
<path d="M14.0758 16.2966V18.3264L11.8836 19.9286L9.69141 18.3264V16.2966" stroke="black" stroke-width="0.898438" stroke-miterlimit="10" stroke-linecap="round" stroke-linejoin="round"/>
<path d="M5.02832 30.2173V18.3265" stroke="black" stroke-width="0.898438" stroke-miterlimit="10" stroke-linecap="round" stroke-linejoin="round"/>
<path d="M18.7383 27.7152V30.2172" stroke="black" stroke-width="0.898438" stroke-miterlimit="10" stroke-linecap="round" stroke-linejoin="round"/>
<path d="M18.7383 18.3265V25.6044" stroke="black" stroke-width="0.898438" stroke-miterlimit="10" stroke-linecap="round" stroke-linejoin="round"/>
<path d="M20.5547 21.5589H22.3723" stroke="black" stroke-width="0.898438" stroke-miterlimit="10" stroke-linecap="round" stroke-linejoin="round"/>
<path d="M9.69208 18.3266H8.13574L9.48328 21.4125C9.58612 21.6481 9.88931 21.7141 10.0809 21.5426L11.8839 19.9284L9.69208 18.3266Z" stroke="black" stroke-width="0.898438" stroke-miterlimit="10" stroke-linecap="round" stroke-linejoin="round"/>
<path d="M14.0756 18.3265H15.632L14.2844 21.4124C14.1816 21.6481 13.8784 21.7141 13.6868 21.5426L11.8838 19.9284L14.0756 18.3265Z" stroke="black" stroke-width="0.898438" stroke-miterlimit="10" stroke-linecap="round" stroke-linejoin="round"/>
<path d="M10.6377 21.0435L11.8833 19.9285L13.1143 21.0306L11.8833 22.9009L10.6377 21.0435Z" stroke="black" stroke-width="0.898438" stroke-miterlimit="10" stroke-linecap="round" stroke-linejoin="round"/>
<path d="M13.3928 30.2173L11.8839 22.9008L10.293 30.2173" stroke="black" stroke-width="0.898438" stroke-miterlimit="10" stroke-linecap="round" stroke-linejoin="round"/>
<path d="M5.02832 23.8209H8.56942C8.86723 23.8209 9.06949 24.1233 8.95563 24.3985L8.56373 25.3462C8.49911 25.5025 8.34667 25.6044 8.17753 25.6044H5.02832V23.8209Z" stroke="black" stroke-width="0.898438" stroke-miterlimit="10" stroke-linecap="round" stroke-linejoin="round"/>
<path d="M18.7388 23.8209H15.1977C14.8999 23.8209 14.6977 24.1234 14.8115 24.3986L15.2034 25.3462C15.268 25.5025 15.4205 25.6044 15.5896 25.6044H18.7388V23.8209Z" stroke="black" stroke-width="0.898438" stroke-miterlimit="10" stroke-linecap="round" stroke-linejoin="round"/>
<path d="M15.3325 6.05457H16.9875V7.95416H6.7793V6.05457H13.2149" stroke="black" stroke-width="0.898438" stroke-miterlimit="10" stroke-linecap="round" stroke-linejoin="round"/>
<path d="M16.9874 6.05463L17.5264 4.57125V3.20903C17.5264 2.8142 17.2916 2.45716 16.9291 2.30077L13.3307 0.748032C12.4072 0.349545 11.3602 0.349545 10.4367 0.747972L6.83758 2.30077C6.47503 2.45716 6.24023 2.8142 6.24023 3.20909V4.57125L6.77918 6.05463" stroke="black" stroke-width="0.898438" stroke-miterlimit="10" stroke-linecap="round" stroke-linejoin="round"/>
<path d="M16.9875 7.95423H6.7793C6.7793 8.66202 7.25122 9.28296 7.93319 9.47253L10.9837 10.3204C11.5726 10.4841 12.195 10.4841 12.7839 10.3204L15.8338 9.47253C16.5157 9.28296 16.9875 8.66196 16.9875 7.95423Z" stroke="black" stroke-width="0.898438" stroke-miterlimit="10" stroke-linecap="round" stroke-linejoin="round"/>
<path d="M11.8115 12.1423V12.8921" stroke="black" stroke-width="0.898438" stroke-miterlimit="10" stroke-linecap="round" stroke-linejoin="round"/>
<path d="M10.0098 14.3163L11.8119 12.892L13.7583 14.3163" stroke="black" stroke-width="0.898438" stroke-miterlimit="10" stroke-linecap="round" stroke-linejoin="round"/>
</g>
</g>
<defs>
<clipPath id="clip0_551_673">
<rect width="24" height="31" fill="white"/>
</clipPath>
</defs>
</svg>
