<svg width="24" height="30" viewBox="0 0 24 30" fill="none" xmlns="http://www.w3.org/2000/svg">
<path d="M18.526 19.8473C18.4559 19.5362 18.2822 19.2581 18.0333 19.0587C17.7844 18.8594 17.4752 18.7505 17.1563 18.75H16.2188C15.929 18.7512 15.6466 18.8419 15.4103 19.0097C15.174 19.1775 14.9954 19.4142 14.8988 19.6875H13.875V18.4218C14.7223 18.1217 15.4855 17.6234 16.1011 16.9684C16.7166 16.3133 17.1667 15.5206 17.4136 14.6564C17.4427 14.5383 17.4247 14.4135 17.3635 14.3085C17.3022 14.2034 17.2026 14.1262 17.0855 14.0932C16.9685 14.0602 16.8432 14.0741 16.7361 14.1317C16.6291 14.1894 16.5486 14.2864 16.5117 14.4023C16.2328 15.3839 15.6414 16.2477 14.8272 16.8628C14.013 17.4779 13.0204 17.8107 12 17.8107C10.9796 17.8107 9.98702 17.4779 9.17281 16.8628C8.35861 16.2477 7.76721 15.3839 7.48831 14.4023C7.47329 14.3413 7.44614 14.2839 7.40848 14.2335C7.37082 14.1832 7.32341 14.1409 7.26908 14.1093C7.21476 14.0776 7.15462 14.0572 7.09224 14.0493C7.02987 14.0413 6.96654 14.046 6.90602 14.0631C6.8455 14.0801 6.78903 14.1092 6.73997 14.1485C6.69091 14.1878 6.65026 14.2366 6.62044 14.292C6.59062 14.3473 6.57224 14.4081 6.5664 14.4707C6.56056 14.5333 6.56737 14.5965 6.58643 14.6564C6.83339 15.5206 7.28341 16.3133 7.89896 16.9684C8.51451 17.6234 9.27775 18.1217 10.125 18.4218V19.6875H9.10127C9.00467 19.4142 8.82601 19.1775 8.58973 19.0097C8.35344 18.8419 8.07108 18.7512 7.78127 18.75H6.84377C6.52487 18.7505 6.21561 18.8594 5.96673 19.0587C5.71785 19.2581 5.54414 19.5362 5.47409 19.8473C4.12966 20.1526 2.92927 20.9066 2.07059 21.9851C1.21192 23.0637 0.746161 24.4026 0.750024 25.7812V29.5312C0.750024 29.6555 0.79941 29.7748 0.887318 29.8627C0.975225 29.9506 1.09445 30 1.21877 30H22.7813C22.9056 30 23.0248 29.9506 23.1127 29.8627C23.2006 29.7748 23.25 29.6555 23.25 29.5312V25.7812C23.2539 24.4026 22.7881 23.0637 21.9295 21.9851C21.0708 20.9066 19.8704 20.1526 18.526 19.8473ZM11.0625 18.6703C11.683 18.7765 12.317 18.7765 12.9375 18.6703V20.1562C12.9375 20.4049 12.8388 20.6433 12.6629 20.8191C12.4871 20.995 12.2487 21.0937 12 21.0937C11.7514 21.0937 11.5129 20.995 11.3371 20.8191C11.1613 20.6433 11.0625 20.4049 11.0625 20.1562V18.6703ZM9.18752 20.625H10.1841C10.2877 21.0279 10.5223 21.3849 10.8511 21.6398C11.1798 21.8947 11.584 22.0331 12 22.0331C12.416 22.0331 12.8202 21.8947 13.149 21.6398C13.4777 21.3849 13.7124 21.0279 13.816 20.625H14.8125V21.0937C14.8125 21.4667 14.6644 21.8244 14.4006 22.0881C14.1369 22.3518 13.7792 22.5 13.4063 22.5H10.5938C10.2208 22.5 9.86313 22.3518 9.59941 22.0881C9.33568 21.8244 9.18752 21.4667 9.18752 21.0937V20.625ZM3.25971 22.0683C3.34767 22.1015 3.42358 22.1605 3.47758 22.2375C3.53158 22.3145 3.56118 22.4059 3.56252 22.5C3.56273 22.5625 3.5501 22.6243 3.52543 22.6817C3.50076 22.7391 3.46456 22.7909 3.41909 22.8337C3.37678 22.877 3.32614 22.9113 3.27023 22.9345C3.21433 22.9577 3.1543 22.9693 3.09377 22.9687H2.52049C2.73215 22.6417 2.98014 22.3396 3.25971 22.0683ZM8.25002 29.0625H6.37502V27.1012C6.52514 27.1567 6.68372 27.1859 6.84377 27.1875H7.78127C7.94132 27.1859 8.0999 27.1567 8.25002 27.1012V29.0625ZM8.25002 25.7812C8.25002 25.9055 8.20064 26.0248 8.11273 26.1127C8.02482 26.2006 7.90559 26.25 7.78127 26.25H6.84377C6.71945 26.25 6.60022 26.2006 6.51232 26.1127C6.42441 26.0248 6.37502 25.9055 6.37502 25.7812V25.3125H8.25002V25.7812ZM12.9375 29.0625H11.0625V27.1012C11.2126 27.1567 11.3712 27.1859 11.5313 27.1875H12.4688C12.6288 27.1859 12.7874 27.1567 12.9375 27.1012V29.0625ZM12.9375 25.7812C12.9375 25.9055 12.8881 26.0248 12.8002 26.1127C12.7123 26.2006 12.5931 26.25 12.4688 26.25H11.5313C11.407 26.25 11.2877 26.2006 11.1998 26.1127C11.1119 26.0248 11.0625 25.9055 11.0625 25.7812V25.3125H12.9375V25.7812ZM17.625 29.0625H15.75V27.1012C15.9001 27.1567 16.0587 27.1859 16.2188 27.1875H17.1563C17.3163 27.1859 17.4749 27.1567 17.625 27.1012V29.0625ZM17.625 25.7812C17.625 25.9055 17.5756 26.0248 17.4877 26.1127C17.3998 26.2006 17.2806 26.25 17.1563 26.25H16.2188C16.0945 26.25 15.9752 26.2006 15.8873 26.1127C15.7994 26.0248 15.75 25.9055 15.75 25.7812V25.3125H17.625V25.7812ZM19.5 29.0625H18.5625V24.8437C18.5625 24.7194 18.5131 24.6002 18.4252 24.5123C18.3373 24.4244 18.2181 24.375 18.0938 24.375H15.2813C15.157 24.375 15.0377 24.4244 14.9498 24.5123C14.8619 24.6002 14.8125 24.7194 14.8125 24.8437V29.0625H13.875V24.8437C13.875 24.7194 13.8256 24.6002 13.7377 24.5123C13.6498 24.4244 13.5306 24.375 13.4063 24.375H10.5938C10.4695 24.375 10.3502 24.4244 10.2623 24.5123C10.1744 24.6002 10.125 24.7194 10.125 24.8437V29.0625H9.18752V24.8437C9.18752 24.7194 9.13814 24.6002 9.05023 24.5123C8.96232 24.4244 8.84309 24.375 8.71877 24.375H5.90627C5.78195 24.375 5.66272 24.4244 5.57482 24.5123C5.48691 24.6002 5.43752 24.7194 5.43752 24.8437V29.0625H4.50002V25.9687C4.50039 25.6495 4.60895 25.3398 4.80799 25.0903L5.52237 24.1997C5.56084 24.1516 5.58947 24.0964 5.60661 24.0373C5.62376 23.9781 5.62909 23.9162 5.6223 23.855C5.61551 23.7938 5.59673 23.7345 5.56704 23.6806C5.53735 23.6266 5.49732 23.5791 5.44924 23.5406C5.40117 23.5021 5.34598 23.4735 5.28684 23.4564C5.2277 23.4392 5.16577 23.4339 5.10457 23.4407C5.04337 23.4475 4.9841 23.4662 4.93016 23.4959C4.87622 23.5256 4.82865 23.5656 4.79018 23.6137L4.07815 24.5062C3.74577 24.9213 3.56399 25.4369 3.56252 25.9687V29.0625H1.68752V25.7812C1.68758 25.1398 1.80679 24.5041 2.03909 23.9062H3.09377C3.46617 23.9044 3.82278 23.7556 4.0861 23.4923C4.34942 23.229 4.49818 22.8724 4.50002 22.5C4.49953 22.303 4.45753 22.1083 4.37677 21.9285C4.296 21.7488 4.17828 21.5882 4.03127 21.457C4.46536 21.1756 4.93945 20.9613 5.43752 20.8214V22.5C5.43752 22.6243 5.48691 22.7435 5.57482 22.8314C5.66272 22.9193 5.78195 22.9687 5.90627 22.9687C6.03059 22.9687 6.14982 22.9193 6.23773 22.8314C6.32564 22.7435 6.37502 22.6243 6.37502 22.5V20.1562C6.37502 20.0319 6.42441 19.9127 6.51232 19.8248C6.60022 19.7369 6.71945 19.6875 6.84377 19.6875H7.78127C7.90559 19.6875 8.02482 19.7369 8.11273 19.8248C8.20064 19.9127 8.25002 20.0319 8.25002 20.1562V21.0937C8.25077 21.7151 8.49794 22.3108 8.93731 22.7502C9.37669 23.1896 9.9724 23.4367 10.5938 23.4375H13.4063C14.0276 23.4367 14.6234 23.1896 15.0627 22.7502C15.5021 22.3108 15.7493 21.7151 15.75 21.0937V20.1562C15.75 20.0319 15.7994 19.9127 15.8873 19.8248C15.9752 19.7369 16.0945 19.6875 16.2188 19.6875H17.1563C17.2806 19.6875 17.3998 19.7369 17.4877 19.8248C17.5756 19.9127 17.625 20.0319 17.625 20.1562V22.192C17.6242 22.4999 17.6844 22.8048 17.8022 23.0893C17.92 23.3737 18.093 23.6319 18.3113 23.849L19.0885 24.6262C19.3512 24.8905 19.499 25.2478 19.5 25.6204V29.0625ZM22.3125 29.0625H20.4375V25.6204C20.4384 25.3126 20.3782 25.0076 20.2604 24.7232C20.1426 24.4387 19.9695 24.1805 19.7513 23.9634L18.9741 23.1862C18.7114 22.9219 18.5635 22.5647 18.5625 22.192V20.8214C19.5669 21.1023 20.4618 21.6826 21.1281 22.4849C21.7943 23.2873 22.2003 24.2736 22.2919 25.3125C21.9229 25.319 21.5711 25.4699 21.312 25.7328C21.053 25.9957 20.9073 26.3496 20.9063 26.7187C20.9063 27.0917 21.0544 27.4494 21.3182 27.7131C21.5819 27.9768 21.9396 28.125 22.3125 28.125V29.0625ZM22.3125 27.1875C22.1882 27.1875 22.069 27.1381 21.9811 27.0502C21.8932 26.9623 21.8438 26.843 21.8438 26.7187C21.8436 26.6562 21.8562 26.5944 21.8809 26.537C21.9055 26.4796 21.9417 26.4278 21.9872 26.385C22.0295 26.3417 22.0802 26.3074 22.1361 26.2842C22.192 26.261 22.252 26.2494 22.3125 26.25V27.1875Z" fill="black"/>
<path d="M5.66239 11.8186L6.37536 12.0567V12.6563C6.37534 12.7691 6.416 12.8781 6.48988 12.9633C6.56375 13.0486 6.66589 13.1043 6.77755 13.1203L9.5938 13.5234C9.81036 13.5542 10.0311 13.5343 10.2386 13.4651C10.4462 13.396 10.6348 13.2795 10.7896 13.125L11.6708 12.2438C11.7586 12.157 11.877 12.1084 12.0004 12.1084C12.1237 12.1084 12.2421 12.157 12.3299 12.2438L13.2111 13.125C13.4757 13.3893 13.8342 13.5381 14.2082 13.5389C14.2743 13.5389 17.2232 13.1217 17.2232 13.1217C17.3351 13.1057 17.4374 13.0497 17.5113 12.9642C17.5852 12.8787 17.6257 12.7693 17.6254 12.6563V12.0567L18.3383 11.8186C18.928 11.6221 19.4155 11.1994 19.6936 10.6435C19.9716 10.0875 20.0175 9.44393 19.821 8.85422L19.5004 7.89281V7.03125C19.503 5.98874 19.2716 4.95893 18.8235 4.01766C18.798 3.96061 18.7614 3.90923 18.7157 3.86654C18.6701 3.82385 18.6164 3.79071 18.5578 3.76907C18.4992 3.74744 18.4368 3.73774 18.3744 3.74055C18.312 3.74335 18.2508 3.75861 18.1943 3.78542C18.1379 3.81224 18.0874 3.85006 18.0458 3.89668C18.0042 3.94329 17.9723 3.99775 17.9521 4.05686C17.9318 4.11597 17.9236 4.17853 17.9278 4.24086C17.9321 4.3032 17.9488 4.36405 17.9769 4.41985C18.3649 5.23559 18.5651 6.12793 18.5629 7.03125V7.96875C18.5631 8.01907 18.5711 8.06905 18.5868 8.11688L18.9318 9.15047C18.9902 9.32575 19.0134 9.51082 19.0003 9.6951C18.9871 9.87938 18.9378 10.0593 18.8551 10.2245C18.7723 10.3897 18.6579 10.537 18.5182 10.6579C18.3786 10.7789 18.2165 10.8711 18.0411 10.9294L17.4875 11.1141L17.0282 9.27563C16.9595 9.00937 16.8443 8.75736 16.6879 8.53125V6.09375C16.686 5.72136 16.5373 5.36475 16.2739 5.10143C16.0106 4.8381 15.654 4.68935 15.2816 4.6875C14.9086 4.6875 14.551 4.83566 14.2872 5.09938C14.0235 5.36311 13.8754 5.72079 13.8754 6.09375V7.5H9.24551C8.7227 7.49947 8.21475 7.67398 7.80263 7.9957C7.39052 8.31742 7.09797 8.76784 6.97161 9.27516L6.51223 11.1136L5.95864 10.9294C5.78332 10.8711 5.6212 10.7789 5.48155 10.6579C5.34189 10.537 5.22744 10.3897 5.14473 10.2245C5.06202 10.0593 5.01267 9.87938 4.99951 9.6951C4.98635 9.51082 5.00963 9.32575 5.06802 9.15047L5.41255 8.11688C5.42889 8.06918 5.43744 8.01917 5.43786 7.96875V7.03125H6.84411C7.2165 7.0294 7.57311 6.88065 7.83644 6.61733C8.09976 6.35401 8.24851 5.99739 8.25036 5.625C8.25036 5.25204 8.1022 4.89436 7.83848 4.63063C7.57476 4.36691 7.21707 4.21875 6.84411 4.21875H6.13114C6.79139 2.95386 7.87249 1.95914 9.18786 1.40625V3.28125C9.18786 3.65421 9.33602 4.0119 9.59974 4.27562C9.86346 4.53934 10.2211 4.6875 10.5941 4.6875H13.4066C13.7796 4.6875 14.1373 4.53934 14.401 4.27562C14.6647 4.0119 14.8129 3.65421 14.8129 3.28125C14.811 2.90886 14.6623 2.55225 14.3989 2.28893C14.1356 2.0256 13.779 1.87685 13.4066 1.875H12.4691C12.3448 1.875 12.2256 1.82562 12.1377 1.73771C12.0497 1.6498 12.0004 1.53057 12.0004 1.40625V0.937502H12.4691C13.359 0.936762 14.2382 1.13128 15.0447 1.50732C15.8512 1.88337 16.5654 2.43179 17.1369 3.11391C17.2169 3.20914 17.3314 3.26871 17.4552 3.27952C17.5791 3.29034 17.7022 3.2515 17.7974 3.17156C17.8926 3.09163 17.9522 2.97713 17.963 2.85327C17.9738 2.72941 17.935 2.60632 17.855 2.5111C17.1956 1.72413 16.3715 1.0914 15.4409 0.657534C14.5103 0.223664 13.4959 -0.000787747 12.4691 2.07726e-06H11.5316C9.66745 0.0021112 7.88025 0.743579 6.56209 2.06174C5.24394 3.3799 4.50247 5.1671 4.50036 7.03125V7.89281L4.17973 8.85422C3.98326 9.44393 4.02909 10.0875 4.30714 10.6435C4.58519 11.1994 5.07269 11.6221 5.66239 11.8186ZM14.8129 6.09375C14.8129 5.96943 14.8622 5.8502 14.9502 5.7623C15.0381 5.67439 15.1573 5.625 15.2816 5.625C15.3441 5.6248 15.406 5.63743 15.4634 5.6621C15.5208 5.68677 15.5725 5.72296 15.6154 5.76844C15.6586 5.81075 15.6929 5.86138 15.7161 5.91729C15.7393 5.9732 15.751 6.03323 15.7504 6.09375V7.72875C15.4568 7.58992 15.1375 7.51362 14.8129 7.50469V6.09375ZM7.31286 11.7769L7.88145 9.5025C7.95754 9.19832 8.13311 8.92829 8.38026 8.73533C8.62741 8.54236 8.93196 8.43754 9.24551 8.4375H14.7552C15.0688 8.43754 15.3733 8.54236 15.6205 8.73533C15.8676 8.92829 16.0432 9.19832 16.1193 9.5025L16.6879 11.7769V12.2498L14.2719 12.5953C14.1999 12.6052 14.1266 12.5981 14.0578 12.5748C13.989 12.5514 13.9265 12.5124 13.8754 12.4608L12.9941 11.5795C12.7306 11.317 12.3737 11.1697 12.0018 11.1697C11.6298 11.1697 11.273 11.317 11.0094 11.5795L10.1254 12.4608C10.0739 12.5128 10.011 12.5521 9.94164 12.5755C9.87229 12.5988 9.79843 12.6056 9.72598 12.5953L7.31286 12.2498V11.7769ZM10.1254 1.10766C10.4336 1.03447 10.747 0.985566 11.0629 0.961408V1.40625C11.0629 1.77921 11.211 2.1369 11.4747 2.40062C11.7385 2.66434 12.0961 2.8125 12.4691 2.8125H13.4066C13.4691 2.8123 13.531 2.82493 13.5884 2.8496C13.6458 2.87427 13.6975 2.91046 13.7404 2.95594C13.7836 2.99825 13.8179 3.04888 13.8411 3.10479C13.8643 3.1607 13.876 3.22072 13.8754 3.28125C13.8754 3.40557 13.826 3.5248 13.7381 3.61271C13.6502 3.70062 13.5309 3.75 13.4066 3.75H10.5941C10.4698 3.75 10.3506 3.70062 10.2627 3.61271C10.1747 3.5248 10.1254 3.40557 10.1254 3.28125V1.10766ZM5.73598 5.15625H6.84411C6.96843 5.15625 7.08766 5.20564 7.17557 5.29355C7.26347 5.38145 7.31286 5.50068 7.31286 5.625C7.31306 5.68749 7.30044 5.74935 7.27576 5.80676C7.25109 5.86417 7.2149 5.9159 7.16942 5.95875C7.12711 6.00204 7.07648 6.03631 7.02057 6.05951C6.96466 6.08272 6.90464 6.09436 6.84411 6.09375H5.51755C5.5655 5.77598 5.63854 5.4625 5.73598 5.15625Z" fill="black"/>
</svg>
